<svg width="36" height="36" viewBox="0 0 36 36" fill="none" xmlns="http://www.w3.org/2000/svg">
<path d="M32.7008 0.500977H3.49062C1.89453 0.500977 0.5 1.64941 0.5 3.22676V32.5018C0.5 34.0877 1.89453 35.501 3.49062 35.501H32.6922C34.2969 35.501 35.5 34.0783 35.5 32.5018V3.22676C35.5094 1.64941 34.2969 0.500977 32.7008 0.500977ZM11.3492 29.6752H6.33515V14.0853H11.3492V29.6752ZM9.01562 11.715H8.97968C7.375 11.715 6.33594 10.5205 6.33594 9.02519C6.33594 7.50254 7.40234 6.33613 9.04297 6.33613C10.6836 6.33613 11.6875 7.49394 11.7234 9.02519C11.7227 10.5205 10.6836 11.715 9.01562 11.715ZM29.6742 29.6752H24.6601V21.151C24.6601 19.1088 23.9305 17.7135 22.1164 17.7135C20.7305 17.7135 19.9101 18.651 19.5453 19.5643C19.4086 19.8924 19.3719 20.3393 19.3719 20.7955V29.6752H14.3578V14.0853H19.3719V16.2549C20.1016 15.2158 21.2414 13.7205 23.8937 13.7205C27.1851 13.7205 29.675 15.89 29.675 20.5674L29.6742 29.6752Z" fill="black"/>
</svg>

