<svg width="40" height="40" viewBox="0 0 40 40" fill="none" xmlns="http://www.w3.org/2000/svg">
<path d="M10 11.248V37.1855C10 37.2684 10.0329 37.3479 10.0915 37.4065C10.1501 37.4651 10.2296 37.498 10.3125 37.498H18.1305C18.2238 37.4981 18.316 37.4772 18.4003 37.4369C18.4845 37.3966 18.5586 37.338 18.6172 37.2653C18.6759 37.1926 18.7174 37.1077 18.7389 37.0169C18.7604 36.926 18.7612 36.8315 18.7414 36.7402L16.3055 27.498H18.125C18.2908 27.498 18.4497 27.4322 18.5669 27.315C18.6841 27.1978 18.75 27.0388 18.75 26.873V11.248H10Z" fill="black"/>
<path d="M35.3266 14.5752L35 14.4932V2.81348C35 2.7306 34.9671 2.65111 34.9085 2.59251C34.8499 2.5339 34.7704 2.50098 34.6875 2.50098H31.3672C31.2915 2.50128 31.2185 2.52904 31.1617 2.5791L21.25 11.251V23.751L31.1617 32.4228C31.2185 32.4729 31.2915 32.5007 31.3672 32.501H34.6875C34.7704 32.501 34.8499 32.4681 34.9085 32.4094C34.9671 32.3508 35 32.2714 35 32.1885V20.5088L35.3266 20.4268C36.0781 20.2229 37.5 19.3502 37.5 17.501C37.5 15.6518 36.0781 14.7791 35.3266 14.5752Z" fill="black"/>
<path d="M7.5 11.248H4.0625C3.97962 11.248 3.90013 11.281 3.84153 11.3396C3.78292 11.3982 3.75 11.4777 3.75 11.5605V14.341C3.63171 14.4463 3.52102 14.5599 3.41875 14.6809C3 15.1793 2.5 16.0715 2.5 17.498C2.5 19.0754 3.11641 20.0863 3.75 20.6559V23.4355C3.75 23.5184 3.78292 23.5979 3.84153 23.6565C3.90013 23.7151 3.97962 23.748 4.0625 23.748H7.5V11.248Z" fill="black"/>
</svg>
