<svg width="40" height="40" viewBox="0 0 40 40" fill="none" xmlns="http://www.w3.org/2000/svg">
<path fill-rule="evenodd" clip-rule="evenodd" d="M10 18V14C10 11.3478 11.0536 8.8043 12.9289 6.92893C14.8043 5.05357 17.3478 4 20 4C22.6522 4 25.1957 5.05357 27.0711 6.92893C28.9464 8.8043 30 11.3478 30 14V18C31.0609 18 32.0783 18.4214 32.8284 19.1716C33.5786 19.9217 34 20.9391 34 22V32C34 33.0609 33.5786 34.0783 32.8284 34.8284C32.0783 35.5786 31.0609 36 30 36H10C8.93913 36 7.92172 35.5786 7.17157 34.8284C6.42143 34.0783 6 33.0609 6 32V22C6 20.9391 6.42143 19.9217 7.17157 19.1716C7.92172 18.4214 8.93913 18 10 18ZM26 14V18H14V14C14 12.4087 14.6321 10.8826 15.7574 9.75736C16.8826 8.63214 18.4087 8 20 8C21.5913 8 23.1174 8.63214 24.2426 9.75736C25.3679 10.8826 26 12.4087 26 14Z" fill="black"/>
</svg>
