<svg width="131" height="105" viewBox="0 0 131 105" fill="none" xmlns="http://www.w3.org/2000/svg">
<path d="M67.1736 44.376H76.7256V47.784H67.1736V57.672H63.7176V47.784H54.1656V44.376H63.7176V34.44H67.1736V44.376ZM52.7127 78L51.8527 75.79H49.0227L48.1727 78H47.2627L50.0527 70.83H50.8627L53.6427 78H52.7127ZM51.5827 74.99L50.7827 72.83C50.7627 72.7767 50.7294 72.68 50.6827 72.54C50.636 72.4 50.5894 72.2567 50.5427 72.11C50.5027 71.9567 50.4694 71.84 50.4427 71.76C50.396 71.9667 50.3427 72.17 50.2827 72.37C50.2227 72.5633 50.1727 72.7167 50.1327 72.83L49.3227 74.99H51.5827ZM56.3994 72.54C56.7527 72.54 57.0694 72.6067 57.3494 72.74C57.6361 72.8733 57.8794 73.0767 58.0794 73.35H58.1294L58.2494 72.64H58.9494V78.09C58.9494 78.8567 58.7527 79.4333 58.3594 79.82C57.9727 80.2067 57.3694 80.4 56.5494 80.4C55.7627 80.4 55.1194 80.2867 54.6194 80.06V79.25C55.1461 79.53 55.8061 79.67 56.5994 79.67C57.0594 79.67 57.4194 79.5333 57.6794 79.26C57.9461 78.9933 58.0794 78.6267 58.0794 78.16V77.95C58.0794 77.87 58.0827 77.7567 58.0894 77.61C58.0961 77.4567 58.1027 77.35 58.1094 77.29H58.0694C57.7094 77.83 57.1561 78.1 56.4094 78.1C55.7161 78.1 55.1727 77.8567 54.7794 77.37C54.3927 76.8833 54.1994 76.2033 54.1994 75.33C54.1994 74.4767 54.3927 73.8 54.7794 73.3C55.1727 72.7933 55.7127 72.54 56.3994 72.54ZM56.5194 73.28C56.0727 73.28 55.7261 73.46 55.4794 73.82C55.2327 74.1733 55.1094 74.68 55.1094 75.34C55.1094 76 55.2294 76.5067 55.4694 76.86C55.7161 77.2067 56.0727 77.38 56.5394 77.38C57.0794 77.38 57.4727 77.2367 57.7194 76.95C57.9661 76.6567 58.0894 76.1867 58.0894 75.54V75.33C58.0894 74.5967 57.9627 74.0733 57.7094 73.76C57.4561 73.44 57.0594 73.28 56.5194 73.28ZM63.1518 72.54C63.2518 72.54 63.3584 72.5467 63.4718 72.56C63.5918 72.5667 63.6951 72.58 63.7818 72.6L63.6718 73.41C63.5851 73.39 63.4884 73.3733 63.3818 73.36C63.2818 73.3467 63.1851 73.34 63.0918 73.34C62.8184 73.34 62.5618 73.4167 62.3218 73.57C62.0818 73.7167 61.8884 73.9267 61.7418 74.2C61.6018 74.4667 61.5318 74.78 61.5318 75.14V78H60.6518V72.64H61.3718L61.4718 73.62H61.5118C61.6851 73.3267 61.9084 73.0733 62.1818 72.86C62.4551 72.6467 62.7784 72.54 63.1518 72.54ZM66.6573 72.54C67.1173 72.54 67.5106 72.64 67.8373 72.84C68.1706 73.04 68.424 73.3233 68.5973 73.69C68.7773 74.05 68.8673 74.4733 68.8673 74.96V75.49H65.1973C65.2106 76.0967 65.364 76.56 65.6573 76.88C65.9573 77.1933 66.374 77.35 66.9073 77.35C67.2473 77.35 67.5473 77.32 67.8073 77.26C68.074 77.1933 68.3473 77.1 68.6273 76.98V77.75C68.354 77.87 68.084 77.9567 67.8173 78.01C67.5506 78.07 67.234 78.1 66.8673 78.1C66.3606 78.1 65.9106 77.9967 65.5173 77.79C65.1306 77.5833 64.8273 77.2767 64.6073 76.87C64.394 76.4567 64.2873 75.9533 64.2873 75.36C64.2873 74.7733 64.384 74.27 64.5773 73.85C64.7773 73.43 65.054 73.1067 65.4073 72.88C65.7673 72.6533 66.184 72.54 66.6573 72.54ZM66.6473 73.26C66.2273 73.26 65.894 73.3967 65.6473 73.67C65.4073 73.9367 65.264 74.31 65.2173 74.79H67.9473C67.9406 74.3367 67.834 73.97 67.6273 73.69C67.4206 73.4033 67.094 73.26 66.6473 73.26ZM72.1318 72.54C72.4852 72.54 72.8018 72.6067 73.0818 72.74C73.3685 72.8733 73.6118 73.0767 73.8118 73.35H73.8618L73.9818 72.64H74.6818V78.09C74.6818 78.8567 74.4852 79.4333 74.0918 79.82C73.7052 80.2067 73.1018 80.4 72.2818 80.4C71.4952 80.4 70.8518 80.2867 70.3518 80.06V79.25C70.8785 79.53 71.5385 79.67 72.3318 79.67C72.7918 79.67 73.1518 79.5333 73.4118 79.26C73.6785 78.9933 73.8118 78.6267 73.8118 78.16V77.95C73.8118 77.87 73.8152 77.7567 73.8218 77.61C73.8285 77.4567 73.8352 77.35 73.8418 77.29H73.8018C73.4418 77.83 72.8885 78.1 72.1418 78.1C71.4485 78.1 70.9052 77.8567 70.5118 77.37C70.1252 76.8833 69.9318 76.2033 69.9318 75.33C69.9318 74.4767 70.1252 73.8 70.5118 73.3C70.9052 72.7933 71.4452 72.54 72.1318 72.54ZM72.2518 73.28C71.8052 73.28 71.4585 73.46 71.2118 73.82C70.9652 74.1733 70.8418 74.68 70.8418 75.34C70.8418 76 70.9618 76.5067 71.2018 76.86C71.4485 77.2067 71.8052 77.38 72.2718 77.38C72.8118 77.38 73.2052 77.2367 73.4518 76.95C73.6985 76.6567 73.8218 76.1867 73.8218 75.54V75.33C73.8218 74.5967 73.6952 74.0733 73.4418 73.76C73.1885 73.44 72.7918 73.28 72.2518 73.28ZM78.4142 72.55C79.0675 72.55 79.5508 72.6933 79.8642 72.98C80.1775 73.2667 80.3342 73.7233 80.3342 74.35V78H79.6942L79.5242 77.24H79.4842C79.2508 77.5333 79.0042 77.75 78.7442 77.89C78.4908 78.03 78.1375 78.1 77.6842 78.1C77.1975 78.1 76.7942 77.9733 76.4742 77.72C76.1542 77.46 75.9942 77.0567 75.9942 76.51C75.9942 75.9767 76.2042 75.5667 76.6242 75.28C77.0442 74.9867 77.6908 74.8267 78.5642 74.8L79.4742 74.77V74.45C79.4742 74.0033 79.3775 73.6933 79.1842 73.52C78.9908 73.3467 78.7175 73.26 78.3642 73.26C78.0842 73.26 77.8175 73.3033 77.5642 73.39C77.3108 73.47 77.0742 73.5633 76.8542 73.67L76.5842 73.01C76.8175 72.8833 77.0942 72.7767 77.4142 72.69C77.7342 72.5967 78.0675 72.55 78.4142 72.55ZM79.4642 75.38L78.6742 75.41C78.0075 75.4367 77.5442 75.5433 77.2842 75.73C77.0308 75.9167 76.9042 76.18 76.9042 76.52C76.9042 76.82 76.9942 77.04 77.1742 77.18C77.3608 77.32 77.5975 77.39 77.8842 77.39C78.3375 77.39 78.7142 77.2667 79.0142 77.02C79.3142 76.7667 79.4642 76.38 79.4642 75.86V75.38ZM43.7979 93.1C43.3245 93.1 42.9012 93.0033 42.5279 92.81C42.1612 92.6167 41.8712 92.3167 41.6579 91.91C41.4512 91.5033 41.3479 90.9833 41.3479 90.35C41.3479 89.69 41.4579 89.1533 41.6779 88.74C41.8979 88.3267 42.1945 88.0233 42.5679 87.83C42.9479 87.6367 43.3779 87.54 43.8579 87.54C44.1312 87.54 44.3945 87.57 44.6479 87.63C44.9012 87.6833 45.1079 87.75 45.2679 87.83L44.9979 88.56C44.8379 88.5 44.6512 88.4433 44.4379 88.39C44.2245 88.3367 44.0245 88.31 43.8379 88.31C42.7845 88.31 42.2579 88.9867 42.2579 90.34C42.2579 90.9867 42.3845 91.4833 42.6379 91.83C42.8979 92.17 43.2812 92.34 43.7879 92.34C44.0812 92.34 44.3379 92.31 44.5579 92.25C44.7845 92.19 44.9912 92.1167 45.1779 92.03V92.81C44.9979 92.9033 44.7979 92.9733 44.5779 93.02C44.3645 93.0733 44.1045 93.1 43.7979 93.1ZM48.5225 87.54C48.9825 87.54 49.3759 87.64 49.7025 87.84C50.0359 88.04 50.2892 88.3233 50.4625 88.69C50.6425 89.05 50.7325 89.4733 50.7325 89.96V90.49H47.0625C47.0759 91.0967 47.2292 91.56 47.5225 91.88C47.8225 92.1933 48.2392 92.35 48.7725 92.35C49.1125 92.35 49.4125 92.32 49.6725 92.26C49.9392 92.1933 50.2125 92.1 50.4925 91.98V92.75C50.2192 92.87 49.9492 92.9567 49.6825 93.01C49.4159 93.07 49.0992 93.1 48.7325 93.1C48.2259 93.1 47.7759 92.9967 47.3825 92.79C46.9959 92.5833 46.6925 92.2767 46.4725 91.87C46.2592 91.4567 46.1525 90.9533 46.1525 90.36C46.1525 89.7733 46.2492 89.27 46.4425 88.85C46.6425 88.43 46.9192 88.1067 47.2725 87.88C47.6325 87.6533 48.0492 87.54 48.5225 87.54ZM48.5125 88.26C48.0925 88.26 47.7592 88.3967 47.5125 88.67C47.2725 88.9367 47.1292 89.31 47.0825 89.79H49.8125C49.8059 89.3367 49.6992 88.97 49.4925 88.69C49.2859 88.4033 48.9592 88.26 48.5125 88.26ZM54.5971 87.54C54.6971 87.54 54.8037 87.5467 54.9171 87.56C55.0371 87.5667 55.1404 87.58 55.2271 87.6L55.1171 88.41C55.0304 88.39 54.9337 88.3733 54.8271 88.36C54.7271 88.3467 54.6304 88.34 54.5371 88.34C54.2637 88.34 54.0071 88.4167 53.7671 88.57C53.5271 88.7167 53.3337 88.9267 53.1871 89.2C53.0471 89.4667 52.9771 89.78 52.9771 90.14V93H52.0971V87.64H52.8171L52.9171 88.62H52.9571C53.1304 88.3267 53.3537 88.0733 53.6271 87.86C53.9004 87.6467 54.2237 87.54 54.5971 87.54ZM58.0179 92.38C58.1513 92.38 58.2879 92.37 58.4279 92.35C58.5679 92.3233 58.6813 92.2967 58.7679 92.27V92.94C58.6746 92.9867 58.5413 93.0233 58.3679 93.05C58.1946 93.0833 58.0279 93.1 57.8679 93.1C57.5879 93.1 57.3279 93.0533 57.0879 92.96C56.8546 92.86 56.6646 92.69 56.5179 92.45C56.3713 92.21 56.2979 91.8733 56.2979 91.44V88.32H55.5379V87.9L56.3079 87.55L56.6579 86.41H57.1779V87.64H58.7279V88.32H57.1779V91.42C57.1779 91.7467 57.2546 91.99 57.4079 92.15C57.5679 92.3033 57.7713 92.38 58.0179 92.38ZM60.2912 85.63C60.4245 85.63 60.5412 85.6767 60.6412 85.77C60.7479 85.8567 60.8012 85.9967 60.8012 86.19C60.8012 86.3767 60.7479 86.5167 60.6412 86.61C60.5412 86.7033 60.4245 86.75 60.2912 86.75C60.1445 86.75 60.0212 86.7033 59.9212 86.61C59.8212 86.5167 59.7712 86.3767 59.7712 86.19C59.7712 85.9967 59.8212 85.8567 59.9212 85.77C60.0212 85.6767 60.1445 85.63 60.2912 85.63ZM60.7212 87.64V93H59.8412V87.64H60.7212ZM64.8893 88.32H63.5393V93H62.6593V88.32H61.7193V87.91L62.6593 87.61V87.3C62.6593 86.6067 62.8127 86.11 63.1193 85.81C63.426 85.5033 63.8527 85.35 64.3993 85.35C64.6127 85.35 64.806 85.37 64.9793 85.41C65.1593 85.4433 65.3127 85.4833 65.4393 85.53L65.2093 86.22C65.1027 86.1867 64.9793 86.1533 64.8393 86.12C64.6993 86.0867 64.556 86.07 64.4093 86.07C64.116 86.07 63.896 86.17 63.7493 86.37C63.6093 86.5633 63.5393 86.87 63.5393 87.29V87.64H64.8893V88.32ZM66.3093 85.63C66.4427 85.63 66.5593 85.6767 66.6593 85.77C66.766 85.8567 66.8193 85.9967 66.8193 86.19C66.8193 86.3767 66.766 86.5167 66.6593 86.61C66.5593 86.7033 66.4427 86.75 66.3093 86.75C66.1627 86.75 66.0393 86.7033 65.9393 86.61C65.8393 86.5167 65.7893 86.3767 65.7893 86.19C65.7893 85.9967 65.8393 85.8567 65.9393 85.77C66.0393 85.6767 66.1627 85.63 66.3093 85.63ZM66.7393 87.64V93H65.8593V87.64H66.7393ZM70.585 93.1C70.1116 93.1 69.6883 93.0033 69.315 92.81C68.9483 92.6167 68.6583 92.3167 68.445 91.91C68.2383 91.5033 68.135 90.9833 68.135 90.35C68.135 89.69 68.245 89.1533 68.465 88.74C68.685 88.3267 68.9816 88.0233 69.355 87.83C69.735 87.6367 70.165 87.54 70.645 87.54C70.9183 87.54 71.1816 87.57 71.435 87.63C71.6883 87.6833 71.895 87.75 72.055 87.83L71.785 88.56C71.625 88.5 71.4383 88.4433 71.225 88.39C71.0116 88.3367 70.8116 88.31 70.625 88.31C69.5716 88.31 69.045 88.9867 69.045 90.34C69.045 90.9867 69.1716 91.4833 69.425 91.83C69.685 92.17 70.0683 92.34 70.575 92.34C70.8683 92.34 71.125 92.31 71.345 92.25C71.5716 92.19 71.7783 92.1167 71.965 92.03V92.81C71.785 92.9033 71.585 92.9733 71.365 93.02C71.1516 93.0733 70.8916 93.1 70.585 93.1ZM75.2696 87.55C75.923 87.55 76.4063 87.6933 76.7196 87.98C77.033 88.2667 77.1896 88.7233 77.1896 89.35V93H76.5496L76.3796 92.24H76.3396C76.1063 92.5333 75.8596 92.75 75.5996 92.89C75.3463 93.03 74.993 93.1 74.5396 93.1C74.053 93.1 73.6496 92.9733 73.3296 92.72C73.0096 92.46 72.8496 92.0567 72.8496 91.51C72.8496 90.9767 73.0596 90.5667 73.4796 90.28C73.8996 89.9867 74.5463 89.8267 75.4196 89.8L76.3296 89.77V89.45C76.3296 89.0033 76.233 88.6933 76.0396 88.52C75.8463 88.3467 75.573 88.26 75.2196 88.26C74.9396 88.26 74.673 88.3033 74.4196 88.39C74.1663 88.47 73.9296 88.5633 73.7096 88.67L73.4396 88.01C73.673 87.8833 73.9496 87.7767 74.2696 87.69C74.5896 87.5967 74.923 87.55 75.2696 87.55ZM76.3196 90.38L75.5296 90.41C74.863 90.4367 74.3996 90.5433 74.1396 90.73C73.8863 90.9167 73.7596 91.18 73.7596 91.52C73.7596 91.82 73.8496 92.04 74.0296 92.18C74.2163 92.32 74.453 92.39 74.7396 92.39C75.193 92.39 75.5696 92.2667 75.8696 92.02C76.1696 91.7667 76.3196 91.38 76.3196 90.86V90.38ZM80.7451 93.1C80.0785 93.1 79.5451 92.87 79.1451 92.41C78.7451 91.9433 78.5451 91.25 78.5451 90.33C78.5451 89.41 78.7451 88.7167 79.1451 88.25C79.5518 87.7767 80.0885 87.54 80.7551 87.54C81.1685 87.54 81.5051 87.6167 81.7651 87.77C82.0318 87.9233 82.2485 88.11 82.4151 88.33H82.4751C82.4685 88.2433 82.4551 88.1167 82.4351 87.95C82.4218 87.7767 82.4151 87.64 82.4151 87.54V85.4H83.2951V93H82.5851L82.4551 92.28H82.4151C82.2551 92.5067 82.0418 92.7 81.7751 92.86C81.5085 93.02 81.1651 93.1 80.7451 93.1ZM80.8851 92.37C81.4518 92.37 81.8485 92.2167 82.0751 91.91C82.3085 91.5967 82.4251 91.1267 82.4251 90.5V90.34C82.4251 89.6733 82.3151 89.1633 82.0951 88.81C81.8751 88.45 81.4685 88.27 80.8751 88.27C80.4018 88.27 80.0451 88.46 79.8051 88.84C79.5718 89.2133 79.4551 89.7167 79.4551 90.35C79.4551 90.99 79.5718 91.4867 79.8051 91.84C80.0451 92.1933 80.4051 92.37 80.8851 92.37ZM89.6575 90.31C89.6575 91.1967 89.4308 91.8833 88.9775 92.37C88.5308 92.8567 87.9241 93.1 87.1575 93.1C86.6841 93.1 86.2608 92.9933 85.8875 92.78C85.5208 92.56 85.2308 92.2433 85.0175 91.83C84.8041 91.41 84.6975 90.9033 84.6975 90.31C84.6975 89.4233 84.9208 88.74 85.3675 88.26C85.8141 87.78 86.4208 87.54 87.1875 87.54C87.6741 87.54 88.1008 87.65 88.4675 87.87C88.8408 88.0833 89.1308 88.3967 89.3375 88.81C89.5508 89.2167 89.6575 89.7167 89.6575 90.31ZM85.6075 90.31C85.6075 90.9433 85.7308 91.4467 85.9775 91.82C86.2308 92.1867 86.6308 92.37 87.1775 92.37C87.7175 92.37 88.1141 92.1867 88.3675 91.82C88.6208 91.4467 88.7475 90.9433 88.7475 90.31C88.7475 89.6767 88.6208 89.18 88.3675 88.82C88.1141 88.46 87.7141 88.28 87.1675 88.28C86.6208 88.28 86.2241 88.46 85.9775 88.82C85.7308 89.18 85.6075 89.6767 85.6075 90.31Z" fill="#D2D6DC"/>
</svg>
