<svg
  width="100"
  height="100"
  viewBox="0 0 100 100"
  fill="none"
  xmlns="http://www.w3.org/2000/svg"
>
  <path
    fill-rule="evenodd"
    clip-rule="evenodd"
    d="M90 50C90 60.6087 85.7857 70.7828 78.2843 78.2843C70.7828 85.7857 60.6087 90 50 90C39.3913 90 29.2172 85.7857 21.7157 78.2843C14.2143 70.7828 10 60.6087 10 50C10 39.3913 14.2143 29.2172 21.7157 21.7157C29.2172 14.2143 39.3913 10 50 10C60.6087 10 70.7828 14.2143 78.2843 21.7157C85.7857 29.2172 90 39.3913 90 50V50ZM60 35C60 37.6522 58.9464 40.1957 57.0711 42.0711C55.1957 43.9464 52.6522 45 50 45C47.3478 45 44.8043 43.9464 42.9289 42.0711C41.0536 40.1957 40 37.6522 40 35C40 32.3478 41.0536 29.8043 42.9289 27.9289C44.8043 26.0536 47.3478 25 50 25C52.6522 25 55.1957 26.0536 57.0711 27.9289C58.9464 29.8043 60 32.3478 60 35V35ZM50 55C45.213 54.999 40.5264 56.3724 36.4971 58.957C32.4678 61.5416 29.2652 65.2286 27.27 69.58C30.0834 72.853 33.5714 75.4788 37.4947 77.2774C41.4181 79.076 45.684 80.0047 50 80C54.316 80.0047 58.5819 79.076 62.5053 77.2774C66.4286 75.4788 69.9166 72.853 72.73 69.58C70.7348 65.2286 67.5322 61.5416 63.5029 58.957C59.4736 56.3724 54.787 54.999 50 55V55Z"
    fill="#718096"
  />
</svg>