<svg width="48" height="48" viewBox="0 0 48 48" fill="none" xmlns="http://www.w3.org/2000/svg">
<path d="M16.93 34.43C18.8053 32.5553 21.3484 31.5021 24 31.5021C26.6516 31.5021 29.1947 32.5553 31.07 34.43M16.5 19H16.525M31.5 19H31.525M46.5 24C46.5 26.9547 45.918 29.8806 44.7873 32.6104C43.6566 35.3402 41.9992 37.8206 39.9099 39.9099C37.8206 41.9992 35.3402 43.6566 32.6104 44.7873C29.8806 45.918 26.9547 46.5 24 46.5C21.0453 46.5 18.1194 45.918 15.3896 44.7873C12.6598 43.6566 10.1794 41.9992 8.0901 39.9099C6.00078 37.8206 4.34344 35.3402 3.21271 32.6104C2.08198 29.8806 1.5 26.9547 1.5 24C1.5 18.0326 3.87053 12.3097 8.0901 8.0901C12.3097 3.87053 18.0326 1.5 24 1.5C29.9674 1.5 35.6903 3.87053 39.9099 8.0901C44.1295 12.3097 46.5 18.0326 46.5 24Z" stroke="#A0AEC0" stroke-width="2" stroke-linecap="round" stroke-linejoin="round"/>
</svg>
