<svg width="60" height="60" viewBox="0 0 60 60" fill="none" xmlns="http://www.w3.org/2000/svg">
<path d="M52.5 52.5L37.5 37.5M42.5 25C42.5 27.2981 42.0474 29.5738 41.1679 31.697C40.2884 33.8202 38.9994 35.7493 37.3744 37.3744C35.7493 38.9994 33.8202 40.2884 31.697 41.1679C29.5738 42.0474 27.2981 42.5 25 42.5C22.7019 42.5 20.4262 42.0474 18.303 41.1679C16.1798 40.2884 14.2507 38.9994 12.6256 37.3744C11.0006 35.7493 9.71157 33.8202 8.83211 31.697C7.95265 29.5738 7.5 27.2981 7.5 25C7.5 20.3587 9.34374 15.9075 12.6256 12.6256C15.9075 9.34374 20.3587 7.5 25 7.5C29.6413 7.5 34.0925 9.34374 37.3744 12.6256C40.6563 15.9075 42.5 20.3587 42.5 25Z" stroke="#A0AEC0" stroke-width="2" stroke-linecap="round" stroke-linejoin="round"/>
</svg>
