<svg width="31" height="34" viewBox="0 0 31 34" fill="none" xmlns="http://www.w3.org/2000/svg">
<path d="M25.5311 22.312C24.105 22.3116 22.7355 22.87 21.7163 23.8675L11.7811 18.2816C11.9853 17.4391 11.9853 16.56 11.7811 15.7175L21.7132 10.1316C22.641 11.0341 23.8599 11.577 25.1514 11.6629C26.443 11.7488 27.723 11.3722 28.7623 10.6005C29.8015 9.82887 30.5322 8.71248 30.8235 7.45125C31.1147 6.19001 30.9476 4.86628 30.3519 3.71704C29.7563 2.5678 28.7711 1.66808 27.5726 1.17896C26.3741 0.689843 25.0407 0.643257 23.811 1.04755C22.5814 1.45183 21.5357 2.2806 20.8613 3.38547C20.1869 4.49034 19.9278 5.79918 20.1304 7.07766L9.96396 12.7964C9.16542 12.1311 8.19382 11.7071 7.16298 11.5742C6.13214 11.4412 5.08476 11.6047 4.14353 12.0457C3.2023 12.4866 2.40621 13.1866 1.84852 14.0636C1.29082 14.9407 0.994629 15.9586 0.994629 16.998C0.994629 18.0374 1.29082 19.0552 1.84852 19.9323C2.40621 20.8094 3.2023 21.5094 4.14353 21.9503C5.08476 22.3912 6.13214 22.5548 7.16298 22.4218C8.19382 22.2888 9.16542 21.8649 9.96396 21.1995L20.1304 26.9214C19.9546 28.0259 20.1217 29.1577 20.6092 30.1643C21.0966 31.1709 21.881 32.0038 22.8565 32.5508C23.832 33.0978 24.9517 33.3326 26.0648 33.2234C27.1778 33.1143 28.2307 32.6666 29.0814 31.9405C29.932 31.2145 30.5397 30.2451 30.8224 29.163C31.105 28.0809 31.0491 26.9382 30.6622 25.8889C30.2753 24.8395 29.576 23.934 28.6585 23.2945C27.741 22.6549 26.6495 22.312 25.5311 22.312Z" fill="black"/>
</svg>
