<svg width="38" height="34" viewBox="0 0 38 34" fill="none" xmlns="http://www.w3.org/2000/svg">
<path d="M32.2583 6.23822C28.8084 2.80892 24.1607 0.854578 19.2968 0.787897C14.4329 0.721216 9.73347 2.54741 6.19085 5.88086C2.64822 9.2143 0.53973 13.7941 0.310622 18.653C0.0815149 23.512 1.74972 28.2698 4.96298 31.9218L4.97704 31.9374C5.00282 31.9648 5.02704 31.9929 5.05517 32.0195C5.11298 32.0851 5.1786 32.1593 5.25595 32.2367C5.55927 32.559 5.92587 32.8154 6.33281 32.9896C6.73976 33.1638 7.17827 33.2521 7.62092 33.249C8.06356 33.2459 8.50081 33.1515 8.90529 32.9717C9.30976 32.7918 9.67276 32.5304 9.97157 32.2038C11.1213 30.9543 12.5178 29.9569 14.0727 29.2746C15.6276 28.5923 17.3071 28.24 19.0052 28.24C20.7032 28.24 22.3827 28.5923 23.9376 29.2746C25.4926 29.9569 26.889 30.9543 28.0388 32.2038C28.3398 32.5321 28.7057 32.7944 29.1133 32.9739C29.521 33.1534 29.9614 33.2464 30.4069 33.2468C30.8523 33.2472 31.2929 33.1552 31.7009 32.9765C32.1089 32.7977 32.4754 32.5362 32.777 32.2085L33.0278 31.9351L33.0419 31.9195C36.2079 28.3444 37.8901 23.6956 37.7449 18.9223C37.5997 14.1491 35.6381 9.61118 32.2606 6.2351L32.2583 6.23822ZM17.7505 6.99994C17.7505 6.66842 17.8822 6.35048 18.1166 6.11606C18.351 5.88164 18.669 5.74994 19.0005 5.74994C19.332 5.74994 19.6499 5.88164 19.8844 6.11606C20.1188 6.35048 20.2505 6.66842 20.2505 6.99994V9.49994C20.2505 9.83146 20.1188 10.1494 19.8844 10.3838C19.6499 10.6182 19.332 10.7499 19.0005 10.7499C18.669 10.7499 18.351 10.6182 18.1166 10.3838C17.8822 10.1494 17.7505 9.83146 17.7505 9.49994V6.99994ZM9.00048 20.7499H6.50048C6.16896 20.7499 5.85102 20.6182 5.61659 20.3838C5.38217 20.1494 5.25048 19.8315 5.25048 19.4999C5.25048 19.1684 5.38217 18.8505 5.61659 18.6161C5.85102 18.3816 6.16896 18.2499 6.50048 18.2499H9.00048C9.332 18.2499 9.64994 18.3816 9.88436 18.6161C10.1188 18.8505 10.2505 19.1684 10.2505 19.4999C10.2505 19.8315 10.1188 20.1494 9.88436 20.3838C9.64994 20.6182 9.332 20.7499 9.00048 20.7499ZM12.813 13.3124C12.5786 13.5467 12.2608 13.6783 11.9294 13.6783C11.598 13.6783 11.2802 13.5467 11.0458 13.3124L9.27782 11.5453C9.04337 11.3108 8.91166 10.9928 8.91166 10.6613C8.91166 10.3297 9.04337 10.0117 9.27782 9.77729C9.51227 9.54284 9.83025 9.41113 10.1618 9.41113C10.4934 9.41113 10.8113 9.54284 11.0458 9.77729L12.813 11.5453C13.0472 11.7797 13.1788 12.0975 13.1788 12.4288C13.1788 12.7602 13.0472 13.078 12.813 13.3124ZM24.477 15.1171L20.7661 21.0156C20.6143 21.226 20.4296 21.4106 20.2192 21.5624C19.7113 21.9168 19.0841 22.0565 18.4737 21.9513C17.8634 21.8461 17.3191 21.5044 16.9591 21.0004C16.5992 20.4965 16.4524 19.8708 16.5509 19.2594C16.6493 18.6479 16.9849 18.0999 17.4849 17.7343L23.3833 14.0234C23.5174 13.9299 23.6769 13.8798 23.8403 13.8798C24.0038 13.8798 24.1633 13.9299 24.2974 14.0234C24.4657 14.145 24.5792 14.3282 24.6128 14.5332C24.6465 14.7381 24.5977 14.9481 24.477 15.1171ZM26.9552 13.3124C26.7188 13.537 26.4042 13.6603 26.0782 13.6561C25.7522 13.6519 25.4408 13.5206 25.2103 13.2901C24.9798 13.0596 24.8485 12.7482 24.8443 12.4222C24.8401 12.0963 24.9635 11.7816 25.188 11.5453L26.9552 9.77729C27.1896 9.54284 27.5076 9.41113 27.8391 9.41113C28.1707 9.41113 28.4887 9.54284 28.7231 9.77729C28.9576 10.0117 29.0893 10.3297 29.0893 10.6613C29.0893 10.9928 28.9576 11.3108 28.7231 11.5453L26.9552 13.3124ZM31.5005 20.7499H29.0005C28.669 20.7499 28.351 20.6182 28.1166 20.3838C27.8822 20.1494 27.7505 19.8315 27.7505 19.4999C27.7505 19.1684 27.8822 18.8505 28.1166 18.6161C28.351 18.3816 28.669 18.2499 29.0005 18.2499H31.5005C31.832 18.2499 32.1499 18.3816 32.3844 18.6161C32.6188 18.8505 32.7505 19.1684 32.7505 19.4999C32.7505 19.8315 32.6188 20.1494 32.3844 20.3838C32.1499 20.6182 31.832 20.7499 31.5005 20.7499Z" fill="black"/>
</svg>
