<svg width="5" height="5" viewBox="0 0 5 5" fill="none" xmlns="http://www.w3.org/2000/svg">
<path d="M1.35813 2.27906V1.8644C1.35813 1.53448 1.4892 1.21807 1.72249 0.984775C1.95578 0.751484 2.27219 0.620422 2.60211 0.620422C2.93204 0.620422 3.24845 0.751484 3.48174 0.984775C3.71503 1.21807 3.84609 1.53448 3.84609 1.8644V2.27906H4.05342C4.1634 2.27906 4.26887 2.32275 4.34663 2.40051C4.42439 2.47828 4.46808 2.58375 4.46808 2.69372V4.35236C4.46808 4.46233 4.42439 4.5678 4.34663 4.64557C4.26887 4.72333 4.1634 4.76702 4.05342 4.76702H1.1508C1.04083 4.76702 0.93536 4.72333 0.857596 4.64557C0.779832 4.5678 0.736145 4.46233 0.736145 4.35236V2.69372C0.736145 2.46566 0.922742 2.27906 1.1508 2.27906H1.35813ZM2.39478 3.67439V4.14503H2.80944V3.67439C2.88849 3.62875 2.95028 3.5583 2.98521 3.47397C3.02014 3.38964 3.02627 3.29613 3.00264 3.20796C2.97902 3.11979 2.92696 3.04188 2.85454 2.98631C2.78212 2.93075 2.69339 2.90063 2.60211 2.90063C2.51083 2.90063 2.4221 2.93075 2.34968 2.98631C2.27727 3.04188 2.22521 3.11979 2.20158 3.20796C2.17796 3.29613 2.18409 3.38964 2.21902 3.47397C2.25395 3.5583 2.31573 3.62875 2.39478 3.67439V3.67439ZM1.98012 1.8644V2.27906H3.2241V1.8644C3.2241 1.69944 3.15857 1.54123 3.04193 1.42459C2.92528 1.30794 2.76708 1.24241 2.60211 1.24241C2.43715 1.24241 2.27895 1.30794 2.1623 1.42459C2.04565 1.54123 1.98012 1.69944 1.98012 1.8644V1.8644Z" fill="#A0AEC0"/>
</svg>

