<svg width="50" height="50" viewBox="0 0 50 50" fill="none" xmlns="http://www.w3.org/2000/svg">
<path d="M14.5834 33.3333C12.5314 33.3356 10.5506 32.5807 9.02065 31.2131C7.49069 29.8456 6.51908 27.9617 6.29199 25.9222C6.0649 23.8827 6.59828 21.8312 7.78996 20.1606C8.98163 18.49 10.7478 17.3179 12.7501 16.8687C12.1708 14.1668 12.6885 11.3455 14.1894 9.02529C15.6902 6.70511 18.0513 5.07618 20.7532 4.49685C23.4551 3.91752 26.2765 4.43524 28.5967 5.93611C30.9168 7.43699 32.5458 9.79808 33.1251 12.5H33.3334C35.9167 12.4974 38.4087 13.4547 40.3258 15.1862C42.2429 16.9176 43.4482 19.2996 43.7078 21.8698C43.9674 24.4399 43.2628 27.0149 41.7307 29.0947C40.1986 31.1746 37.9483 32.6109 35.4168 33.125M31.2501 27.0833L25.0001 20.8333M25.0001 20.8333L18.7501 27.0833M25.0001 20.8333V45.8333" stroke="#CFD8E3" stroke-width="2" stroke-linecap="round" stroke-linejoin="round"/>
</svg>
